<svg width="800" height="519" xmlns="http://www.w3.org/2000/svg" xmlns:xlink="http://www.w3.org/1999/xlink" overflow="hidden"><defs><clipPath id="clip0"><path d="M347 124 1147 124 1147 643 347 643Z" fill-rule="evenodd" clip-rule="evenodd"/></clipPath></defs><g clip-path="url(#clip0)" transform="translate(-347 -124)"><rect x="350" y="126" width="793" height="514" fill="#E2F0D9"/><path d="M350 127 1143.7 127" stroke="#000000" stroke-width="4" stroke-linecap="round" stroke-miterlimit="8" fill="none" fill-rule="evenodd"/><path d="M350 641.016 350 127" stroke="#000000" stroke-width="4" stroke-linecap="round" stroke-miterlimit="8" fill="none" fill-rule="evenodd"/><path d="M1144 641.016 1144 127" stroke="#000000" stroke-width="4" stroke-linecap="round" stroke-miterlimit="8" fill="none" fill-rule="evenodd"/><path d="M350 641 1143.7 641" stroke="#000000" stroke-width="4" stroke-linecap="round" stroke-miterlimit="8" fill="none" fill-rule="evenodd"/><path d="M675 382C675 342.236 707.235 310 747 310 786.764 310 819 342.236 819 382 819 421.764 786.764 454 747 454 707.235 454 675 421.764 675 382Z" stroke="#000000" stroke-width="4" stroke-miterlimit="8" fill="none" fill-rule="evenodd"/><path d="M350 230 474.724 230" stroke="#000000" stroke-width="4" stroke-linecap="round" stroke-miterlimit="8" fill="none" fill-rule="evenodd"/><path d="M350 536 474.724 536" stroke="#000000" stroke-width="4" stroke-linecap="round" stroke-miterlimit="8" fill="none" fill-rule="evenodd"/><path d="M1019 227 1143.72 227" stroke="#000000" stroke-width="4" stroke-linecap="round" stroke-miterlimit="8" fill="none" fill-rule="evenodd"/><path d="M1019 535 1143.72 535" stroke="#000000" stroke-width="4" stroke-linecap="round" stroke-miterlimit="8" fill="none" fill-rule="evenodd"/><path d="M0 0 0.000104987 303.654" stroke="#000000" stroke-width="4" stroke-linecap="round" stroke-miterlimit="8" fill="none" fill-rule="evenodd" transform="matrix(1 0 0 -1 475 534.654)"/><path d="M0 0 0.000104987 303.654" stroke="#000000" stroke-width="4" stroke-linecap="round" stroke-miterlimit="8" fill="none" fill-rule="evenodd" transform="matrix(1 0 0 -1 1019 531.654)"/><path d="M475 327 481.689 332.425C494.856 345.369 503 363.249 503 383 503 402.751 494.856 420.631 481.689 433.575L475 439 475 327Z" stroke="#000000" stroke-width="4" stroke-miterlimit="8" fill="none" fill-rule="evenodd"/><path d="M0 0 6.68928 5.42542C19.8562 18.3686 28 36.2494 28 56 28 75.7507 19.8562 93.6315 6.68928 106.575L0 112 0 0Z" stroke="#000000" stroke-width="4" stroke-miterlimit="8" fill="none" fill-rule="evenodd" transform="matrix(-1 -8.74228e-08 -8.74228e-08 1 1019 326)"/><path d="M747 641.016 747 127" stroke="#000000" stroke-width="4" stroke-linecap="round" stroke-miterlimit="8" fill="none" fill-rule="evenodd"/><path d="M429 382.5C429 380.015 431.015 378 433.5 378 435.985 378 438 380.015 438 382.5 438 384.985 435.985 387 433.5 387 431.015 387 429 384.985 429 382.5Z" fill-rule="evenodd"/><path d="M1060 382.5C1060 380.015 1062.01 378 1064.5 378 1066.99 378 1069 380.015 1069 382.5 1069 384.985 1066.99 387 1064.5 387 1062.01 387 1060 384.985 1060 382.5Z" fill-rule="evenodd"/><path d="M350 313 391.575 313" stroke="#000000" stroke-width="4" stroke-linecap="round" stroke-miterlimit="8" fill="none" fill-rule="evenodd"/><path d="M350 453 391.575 453" stroke="#000000" stroke-width="4" stroke-linecap="round" stroke-miterlimit="8" fill="none" fill-rule="evenodd"/><path d="M0 0 0.000104987 139.771" stroke="#000000" stroke-width="4" stroke-linecap="round" stroke-miterlimit="8" fill="none" fill-rule="evenodd" transform="matrix(1 0 0 -1 391 452.771)"/><path d="M350 633 353.077 633.591C355.97 634.755 358 637.481 358 640.658L357.89 641 350 641Z" stroke="#000000" stroke-width="4" stroke-miterlimit="8" fill="none" fill-rule="evenodd"/><path d="M0 0 2.69232 0.591022C5.2238 1.75538 7 4.48124 7 7.65836L6.9041 8 0 8Z" stroke="#000000" stroke-width="4" stroke-miterlimit="8" fill="none" fill-rule="evenodd" transform="matrix(-1 -8.74228e-08 -8.74228e-08 1 1143 632)"/><path d="M0 0 2.69232 0.591022C5.2238 1.75538 7 4.48124 7 7.65836L6.9041 8 0 8Z" stroke="#000000" stroke-width="4" stroke-miterlimit="8" fill="none" fill-rule="evenodd" transform="matrix(1 0 0 -1 351 135)"/><path d="M1143 135 1140.31 134.409C1137.78 133.245 1136 130.519 1136 127.342L1136.1 127 1143 127Z" stroke="#000000" stroke-width="4" stroke-miterlimit="8" fill="none" fill-rule="evenodd"/><path d="M0 0 41.5748 0.000104987" stroke="#000000" stroke-width="4" stroke-linecap="round" stroke-miterlimit="8" fill="none" fill-rule="evenodd" transform="matrix(-1 -8.74228e-08 -8.74228e-08 1 1142.57 313)"/><path d="M0 0 41.5748 0.000104987" stroke="#000000" stroke-width="4" stroke-linecap="round" stroke-miterlimit="8" fill="none" fill-rule="evenodd" transform="matrix(-1 -8.74228e-08 -8.74228e-08 1 1142.57 452)"/><path d="M1101 452.771 1101 313" stroke="#000000" stroke-width="4" stroke-linecap="round" stroke-miterlimit="8" fill="none" fill-rule="evenodd"/><rect x="350" y="355" width="10" height="55"/><rect x="1134" y="355" width="10" height="55"/><path d="M742 381.5C742 379.015 744.015 377 746.5 377 748.985 377 751 379.015 751 381.5 751 383.985 748.985 386 746.5 386 744.015 386 742 383.985 742 381.5Z" fill-rule="evenodd"/></g></svg>